<?xml version="1.0" encoding="utf-8"?>
<!-- Generator: Adobe Illustrator 28.2.0, SVG Export Plug-In . SVG Version: 6.00 Build 0)  -->
<svg version="1.1" id="Calque_1" xmlns="http://www.w3.org/2000/svg" xmlns:xlink="http://www.w3.org/1999/xlink" x="0px" y="0px"
	 viewBox="0 0 13.2 13.1" style="enable-background:new 0 0 13.2 13.1;" xml:space="preserve">
<style type="text/css">
	.st0{fill:#AF1414;}
</style>
<g>
	<path class="st0" d="M12.7,2.5h-2H9.1V1c0-0.6-0.5-1-1-1H5C4.4,0,4,0.5,4,1v1.5H2.4H0.5C0.2,2.5,0,2.7,0,3s0.2,0.5,0.5,0.5h1.4v7.9
		c0,1,0.8,1.7,1.7,1.7h5.9c1,0,1.7-0.8,1.7-1.7V3.5h1.5c0.3,0,0.5-0.2,0.5-0.5S13,2.5,12.7,2.5z M4.9,1C4.9,1,4.9,1,4.9,1L8.1,1
		c0,0,0.1,0,0.1,0.1v1.5H4.9V1z M10.3,11.4c0,0.4-0.4,0.8-0.8,0.8H3.6c-0.4,0-0.8-0.4-0.8-0.8V3.5h1.5h4.2h1.6V11.4L10.3,11.4z"/>
	<path class="st0" d="M5.2,5.1C5,5.1,4.7,5.4,4.7,5.6v4.3c0,0.3,0.2,0.5,0.5,0.5s0.5-0.2,0.5-0.5V5.6C5.7,5.4,5.5,5.1,5.2,5.1z"/>
	<path class="st0" d="M8.1,5.1c-0.3,0-0.5,0.2-0.5,0.5v4.3c0,0.3,0.2,0.5,0.5,0.5c0.3,0,0.5-0.2,0.5-0.5V5.6
		C8.5,5.4,8.3,5.1,8.1,5.1z"/>
</g>
</svg>
