<?xml version="1.0" encoding="UTF-8"?>
<svg id="Calque_1" data-name="Calque 1" xmlns="http://www.w3.org/2000/svg" version="1.1" viewBox="0 0 13.2 13.1">
  <defs>
    <style>
      .cls-1 {
        fill: #af1414;
        stroke-width: 0px;
      }
    </style>
  </defs>
  <path class="cls-1" d="M12.7,2.5h-3.6v-1.5C9.1.4,8.6,0,8.1,0h-3.1C4.4,0,4,.5,4,1v1.5H.5c-.3,0-.5.2-.5.5s.2.5.5.5h1.4v7.9c0,1,.8,1.7,1.7,1.7h5.9c1,0,1.7-.8,1.7-1.7V3.5h1.5c.3,0,.5-.2.5-.5s-.2-.5-.5-.5ZM4.9,1h3.2s.1,0,.1.1v1.5h-3.3v-1.6ZM10.1,11.4c0,.4-.4.8-.8.8H3.6c-.4,0-.8-.4-.8-.8V3.5h7.3v7.9h0Z"/>
  <path class="cls-1" d="M5.2,5.1c-.2,0-.5.3-.5.5v4.3c0,.3.2.5.5.5s.5-.2.5-.5v-4.3c0-.2-.2-.5-.5-.5Z"/>
  <path class="cls-1" d="M8.1,5.1c-.3,0-.5.2-.5.5v4.3c0,.3.2.5.5.5s.5-.2.5-.5v-4.3c-.1-.2-.3-.5-.5-.5Z"/>
</svg>