<?xml version="1.0" encoding="UTF-8"?>
<svg id="Calque_1" data-name="Calque 1" xmlns="http://www.w3.org/2000/svg" version="1.1" viewBox="0 0 13.2 13.1">
  <defs>
    <style>
      .cls-1 {
        fill: #ea8b0c;
        stroke-width: 0px;
      }
    </style>
  </defs>
  <path class="cls-1" d="M-11.4,8c0-.1.3-.2.4-.1s.2.3.1.4l-.8,1.4s0,0,0,0h0c0,.3.2.4.4.6.2,0,.4.1.6,0L-6.3,2.8c-.2,0-.4,0-.5-.2-.2-.1-.4-.3-.5-.5l-2.4,4.1c0,.1-.3.2-.4.1-.1,0-.2-.3-.1-.4L-7.1.5c.1-.2.4-.4.6-.4.2,0,.5,0,.8,0,.6.4,1.3.8,1.9,1.1.2.1.4.4.5.6,0,.3,0,.5-.1.8l-5.2,9.1s0,0-.1.1l-2.3,1.2c-.1,0-.3.1-.4.1-.1,0-.3,0-.4-.1h0c-.1,0-.2-.2-.3-.3,0-.1-.1-.3-.1-.4v-2.6c0,0,0-.1,0-.2l.9-1.6h0ZM-10.2,10.7c0,.2.2.3.4.4.2.1.4.1.6,0h0s0,0,0,0L-4.7,3.6c-.2,0-.5,0-.7-.2-.2,0-.3-.2-.4-.4l-4.4,7.6ZM-4.3,3l.4-.7c0-.1,0-.2,0-.3s0-.2-.2-.3l-1.9-1.1c-.1,0-.2,0-.3,0-.1,0-.2,0-.3.2l-.4.7s0,0,0,0h0c0,.3.2.4.4.6.2.1.4.1.7,0h0c.2,0,.3,0,.4.2h0c0,.3.2.4.4.6.2.1.4.1.7,0h0s0,0,0,0h0ZM-11.8,10.6v1.6c0,0,0,0,0,.1,0,0,0,0,0,0h0s0,0,.1,0c0,0,0,0,.1,0l1.4-.8c0,0-.2,0-.2-.1-.3-.1-.5-.4-.6-.6-.3,0-.6,0-.9-.2,0,0-.1,0-.2-.1h0ZM-10.8,6.9c0-.1.3-.2.4-.1.1,0,.2.3.1.4h0c0,.2-.3.2-.4.1s-.2-.3-.1-.4h0Z"/>
  <g>
    <path class="cls-1" d="M.8,11.2s0,0,0,0l-.6,1.2c0,.2,0,.3,0,.5.1.2.4.3.7.2l1.2-.6s0,0,0,0l-1.1-1.2Z"/>
    <path class="cls-1" d="M12.8,1.3l-.9-.9c-.5-.5-1.3-.5-1.8,0l-5.9,5.9c-1.8,1.8-2.9,3.9-2.9,4,0,.2,0,.4,0,.5l1.1,1.1c0,0,.2.1.3.1s.1,0,.2,0c0,0,2.2-1.1,4-2.9l5.9-5.9c.5-.5.5-1.3,0-1.8ZM6.3,8.4c-1.3,1.3-2.9,2.3-3.5,2.6l-.7-.7c.3-.6,1.3-2.1,2.6-3.5l4.6-4.6,1.5,1.5-4.6,4.6ZM12.2,2.5l-.6.6-1.6-1.6.6-.6c.2-.2.4-.2.6,0l.9.9c.2.2.2.4,0,.6Z"/>
  </g>
</svg>