<?xml version="1.0" encoding="utf-8"?>
<!-- Generator: Adobe Illustrator 28.0.0, SVG Export Plug-In . SVG Version: 6.00 Build 0)  -->
<svg version="1.1" id="Calque_1" xmlns="http://www.w3.org/2000/svg" xmlns:xlink="http://www.w3.org/1999/xlink" x="0px" y="0px"
	 viewBox="0 0 155.2 155.2" style="enable-background:new 0 0 155.2 155.2;" xml:space="preserve">
<path d="M77.6,10c37.3,0,67.6,30.3,67.6,67.6s-30.3,67.6-67.6,67.6S10,114.9,10,77.6S40.3,10,77.6,10 M77.6,0C34.7,0,0,34.7,0,77.6
	s34.7,77.6,77.6,77.6s77.6-34.7,77.6-77.6S120.5,0,77.6,0L77.6,0z"/>
<path d="M103.7,58.5c0,3.8-0.6,7-1.7,9.6c-1.1,2.6-2.5,4.8-4.2,6.6l-7.2,7.2c-2.1,2.1-3.8,4.1-5.1,6.3c-0.6,1-1.1,2.1-1.5,3.3
	c0,0.1-0.1,0.2-0.1,0.3c-0.8,2.6-3.3,4.6-6.2,4.6c-3.6,0-6.5-2.9-6.5-6.5c0-0.7,0.1-1.3,0.3-1.9c0,0,0,0,0,0
	c0.2-0.4,0.3-0.8,0.5-1.2c0.4-0.9,0.9-1.7,1.4-2.4c1-1.5,2.1-2.9,3.3-4.2s2.5-2.7,3.9-4l3.4-3.4c1.6-1.6,2.9-3.3,4-5.2
	c1.1-1.9,1.6-4.3,1.6-7.2c0-3.8-1.1-6.7-3.1-8.8s-5-3.1-8.8-3.1c-4.7,0-8.2,1.1-10.5,3.1c-1.5,1.4-2.8,3.3-3.8,5.8
	c-1.1,2.6-3.8,4.1-6.6,3.8c-3.2-0.4-5.4-3.2-5.4-6.2c0-0.8,0.2-1.6,0.5-2.4c0.2-0.4,0.4-0.8,0.6-1.2c1.3-2.8,3.1-5.3,5.4-7.4
	c2.2-2.1,5-3.8,8.3-5c3.3-1.2,7.2-1.8,11.8-1.8c8.2,0,14.6,2,19.1,6C101.5,46.8,103.8,52,103.7,58.5L103.7,58.5z"/>
<path d="M72.1,86.7c-0.2,0.4-0.4,0.8-0.5,1.2C71.7,87.5,71.9,87,72.1,86.7z"/>
<circle cx="76.8" cy="110.9" r="7.5"/>
</svg>
