<?xml version="1.0" encoding="utf-8"?>
<!-- Generator: Adobe Illustrator 28.2.0, SVG Export Plug-In . SVG Version: 6.00 Build 0)  -->
<svg version="1.1" id="Calque_1" xmlns="http://www.w3.org/2000/svg" xmlns:xlink="http://www.w3.org/1999/xlink" x="0px" y="0px"
	 viewBox="0 0 90 90.4" style="enable-background:new 0 0 90 90.4;" xml:space="preserve">
<style type="text/css">
	.st0{fill:#353535;}
</style>
<path class="st0" d="M67.5,43c-0.1-0.8-0.6-1.5-1.4-1.8s-1.6,0-2.1,0.6c-2.6,2.9-6.2,4.6-10.1,4.6c-7.4,0-13.5-6.1-13.5-13.5
	c0-2.4,0.7-4.8,1.9-6.9c0.4-0.7,0.4-1.5-0.1-2.2c-0.5-0.6-1.3-1-2.1-0.8c-10.2,2.3-17.6,11.5-17.6,22c0,12.4,10.1,22.5,22.5,22.5
	S67.5,57.4,67.5,45C67.5,44.4,67.5,43.7,67.5,43z M45,63.5c-10.2,0-18.5-8.3-18.5-18.5c0-7.2,4.2-13.6,10.5-16.7
	c-0.4,1.5-0.6,3-0.6,4.6c0,9.7,7.8,17.5,17.5,17.5c3.4,0,6.7-1,9.5-2.8C62.1,56.5,54.3,63.5,45,63.5z"/>
<path class="st0" d="M75.7,45.2c0-16.9-13.8-30.7-30.7-30.7S14.3,28.3,14.3,45.2S28.1,75.9,45,75.9S75.7,62.1,75.7,45.2z M45,71.9
	c-14.7,0-26.7-12-26.7-26.7s12-26.7,26.7-26.7s26.7,12,26.7,26.7S59.7,71.9,45,71.9z"/>
<path class="st0" d="M45.2,0L45.2,0c1.1,0,2,0.9,2,2v6.7c0,1.1-0.9,2-2,2l0,0c-1.1,0-2-0.9-2-2V2C43.2,0.9,44.1,0,45.2,0z"/>
<path class="st0" d="M45.2,79.7L45.2,79.7c1.1,0,2,0.9,2,2v6.7c0,1.1-0.9,2-2,2l0,0c-1.1,0-2-0.9-2-2v-6.7
	C43.2,80.6,44.1,79.7,45.2,79.7z"/>
<path class="st0" d="M2,43.2h6.7c1.1,0,2,0.9,2,2l0,0c0,1.1-0.9,2-2,2H2c-1.1,0-2-0.9-2-2l0,0C0,44.1,0.9,43.2,2,43.2z"/>
<path class="st0" d="M13.3,74.3l4.7-4.7c0.8-0.8,2-0.8,2.8,0l0,0c0.8,0.8,0.8,2,0,2.8l-4.7,4.7c-0.8,0.8-2,0.8-2.8,0l0,0
	C12.5,76.4,12.5,75.1,13.3,74.3z"/>
<path class="st0" d="M13.2,13.3L13.2,13.3c0.8-0.8,2-0.8,2.8,0l4.7,4.7c0.8,0.8,0.8,2,0,2.8l0,0c-0.8,0.8-2,0.8-2.8,0l-4.7-4.7
	C12.5,15.3,12.5,14,13.2,13.3z"/>
<path class="st0" d="M81.3,43.2H88c1.1,0,2,0.9,2,2l0,0c0,1.1-0.9,2-2,2h-6.7c-1.1,0-2-0.9-2-2l0,0C79.3,44.1,80.2,43.2,81.3,43.2z"
	/>
<path class="st0" d="M69.3,69.7L69.3,69.7c0.8-0.8,2-0.8,2.8,0l4.7,4.7c0.8,0.8,0.8,2,0,2.8l0,0c-0.8,0.8-2,0.8-2.8,0l-4.7-4.7
	C68.5,71.7,68.5,70.4,69.3,69.7z"/>
<path class="st0" d="M69.2,17.9l4.7-4.7c0.8-0.8,2-0.8,2.8,0l0,0c0.8,0.8,0.8,2,0,2.8L72,20.7c-0.8,0.8-2,0.8-2.8,0l0,0
	C68.5,20,68.5,18.7,69.2,17.9z"/>
</svg>
