<?xml version="1.0" encoding="UTF-8"?>
<svg id="Calque_1" data-name="Calque 1" xmlns="http://www.w3.org/2000/svg" version="1.1" viewBox="0 0 13.2 13.1">
  <defs>
    <style>
      .cls-1 {
        fill: #256bb7;
        stroke-width: 0px;
      }
    </style>
  </defs>
  <path class="cls-1" d="M6.6,2.8c-2.5,0-4.8,1.4-6,3.6h0c0,.1,0,.2,0,.3,1.2,2.2,3.5,3.6,6,3.6s4.8-1.4,6-3.6c0-.1,0-.2,0-.3-1.2-2.2-3.5-3.6-6-3.6h0ZM6.6,3.6c2.2,0,4.1,1.2,5.2,3-1.1,1.9-3,3-5.2,3s-4.1-1.2-5.2-3c1.1-1.9,3-3,5.2-3Z"/>
  <path class="cls-1" d="M6.6,4.2c-1.3,0-2.4,1.1-2.4,2.4s1.1,2.4,2.4,2.4,2.4-1.1,2.4-2.4-1.1-2.4-2.4-2.4ZM6.6,5c.9,0,1.6.7,1.6,1.6s-.7,1.6-1.6,1.6-1.6-.7-1.6-1.6.7-1.6,1.6-1.6Z"/>
  <path class="cls-1" d="M6.6,0c-.2,0-.4.2-.4.4v1.2c0,.2.2.4.4.4s.4-.2.4-.4V.4c0-.2-.2-.4-.4-.4Z"/>
  <path class="cls-1" d="M11.6.2c-.1,0-.3,0-.3.2l-.6,1c-.1.2,0,.4.1.5.2.1.4,0,.5-.1l.6-1c.1-.2,0-.4-.1-.5,0,0-.1,0-.2,0h0Z"/>
  <path class="cls-1" d="M1.6.2c0,0-.1,0-.2,0-.2.1-.2.3-.1.5l.6,1c0,0,.1.1.2.2,0,0,.2,0,.3,0,.2-.1.2-.3.1-.5l-.6-1c0-.1-.2-.2-.3-.2h0Z"/>
  <path class="cls-1" d="M6.6,11.2c-.2,0-.4.2-.4.4v1.2h0c0,.2.2.4.4.4s.4-.2.4-.4v-1.2h0c0-.2-.2-.4-.4-.4Z"/>
  <path class="cls-1" d="M11,11.2c0,0-.1,0-.2,0,0,0-.1.1-.2.2,0,0,0,.2,0,.3l.6,1h0c.1.2.3.2.5.1,0,0,.1-.1.2-.2,0,0,0-.2,0-.3l-.6-1h0c0-.1-.2-.2-.3-.2h0Z"/>
  <path class="cls-1" d="M2.2,11.2c-.1,0-.3,0-.3.2l-.6,1h0c-.1.2,0,.4.1.5,0,0,.2,0,.3,0,0,0,.2,0,.2-.2l.6-1h0c.1-.2,0-.4-.1-.5,0,0-.1,0-.2,0h0Z"/>
</svg>