<?xml version="1.0" encoding="utf-8"?>
<!-- Generator: Adobe Illustrator 28.2.0, SVG Export Plug-In . SVG Version: 6.00 Build 0)  -->
<svg version="1.1" id="Calque_1" xmlns="http://www.w3.org/2000/svg" xmlns:xlink="http://www.w3.org/1999/xlink" x="0px" y="0px"
	 viewBox="0 0 38.2 53.4" style="enable-background:new 0 0 38.2 53.4;" xml:space="preserve">
<style type="text/css">
	.st0{fill:#353535;}
</style>
<g>
	<path class="st0" d="M19.1,24.9c3.2,0,6.2-1.6,8.5-4.5c2.1-2.6,3.2-5.9,3.2-9c0-3.2-1.2-6.1-3.5-8.2c-2.2-2-5.1-3.2-8.2-3.2
		s-6,1.1-8.2,3.2c-2.3,2.1-3.5,5-3.5,8.2c0,3.1,1.2,6.4,3.2,9C12.9,23.3,15.9,24.9,19.1,24.9z M13.4,6c1.5-1.4,3.5-2.2,5.7-2.2
		s4.2,0.8,5.7,2.2s2.3,3.3,2.3,5.5c0,4.4-3.6,9.8-8,9.8s-8-5.3-8-9.8C11.1,9.3,11.9,7.4,13.4,6z"/>
	<path class="st0" d="M1.4,33.2c-1.2,2.4-1.6,5.3-1.2,8.8c0.4,3.8,1,7.1,1.8,10c0.2,0.8,1,1.4,1.8,1.4h30.7c0.8,0,1.6-0.6,1.8-1.4
		c0.8-2.9,1.4-6.2,1.8-10c0.4-3.5,0-6.4-1.2-8.8s-3.5-4.6-6.3-6.1c-0.6-0.3-1.3-0.6-2-0.9C28.1,26,27.5,26,27,26.3
		c-2.4,1.5-5.1,2.2-7.8,2.2s-5.4-0.8-7.8-2.2c-0.5-0.3-1.1-0.4-1.6-0.1c-0.7,0.3-1.3,0.6-2,0.9C4.9,28.6,2.6,30.7,1.4,33.2z
		 M9.4,30.4c0.3-0.1,0.5-0.3,0.8-0.4c2.8,1.5,5.9,2.3,8.9,2.3c3.1,0,6.1-0.8,8.9-2.3c0.3,0.1,0.5,0.2,0.8,0.4
		c2.2,1.1,3.9,2.7,4.7,4.5c0.9,1.7,1.1,3.8,0.8,6.6l0,0c-0.4,3-0.8,5.7-1.4,8.1H5.2c-0.6-2.4-1-5-1.4-8.1c-0.3-2.8-0.1-4.9,0.8-6.6
		C5.6,33.1,7.2,31.5,9.4,30.4z"/>
</g>
</svg>
